<svg version="1.0" xmlns="http://www.w3.org/2000/svg"
 width="512.000000pt" height="512.000000pt" viewBox="0 0 512.000000 512.000000"
 preserveAspectRatio="xMidYMid meet">

<g transform="translate(0.000000,512.000000) scale(0.100000,-0.100000)"
fill="#000000" stroke="currentColor">
<path d="M2963 4946 c-181 -44 -325 -203 -353 -392 -41 -268 157 -512 430
-531 140 -10 253 30 352 124 103 99 148 203 148 343 0 303 -283 527 -577 456z
m132 -329 c33 -22 66 -47 73 -55 8 -11 12 -58 12 -149 0 -129 -1 -135 -25
-158 -13 -14 -33 -25 -45 -25 -11 0 -32 11 -45 25 -23 22 -25 31 -25 129 l0
104 -45 26 c-65 39 -86 95 -47 128 40 36 62 32 147 -25z"/>
<path d="M1976 3778 c-14 -20 -16 -80 -16 -453 0 -373 2 -433 16 -453 20 -29
76 -30 104 -2 19 19 20 33 20 405 l0 385 708 -1 c389 0 703 -2 697 -5 -5 -2
-228 -69 -495 -149 -266 -80 -491 -152 -500 -160 -13 -14 -15 -159 -18 -1310
l-2 -1295 -195 0 -195 0 0 368 0 369 -23 21 c-29 27 -71 28 -97 2 -19 -19 -20
-33 -20 -439 0 -397 1 -420 19 -442 19 -24 20 -24 265 -27 l246 -3 0 -182 c0
-126 4 -190 13 -207 28 -55 13 -58 793 175 401 120 741 224 755 231 15 7 29
21 33 29 3 9 6 716 6 1571 0 1541 0 1554 -20 1574 -20 20 -33 20 -1049 20
l-1030 0 -15 -22z m1109 -1547 c49 -22 99 -77 115 -126 19 -58 9 -146 -23
-194 -90 -136 -304 -126 -377 19 -58 116 -9 253 110 304 48 21 127 19 175 -3z"/>
<path d="M2949 2100 c-26 -15 -41 -62 -30 -93 33 -86 151 -64 151 28 0 57 -70
95 -121 65z"/>
<path d="M1158 2473 c-115 -115 -216 -221 -225 -237 -8 -15 -12 -38 -9 -50 8
-32 448 -466 473 -466 35 0 73 38 73 72 0 27 -22 53 -152 185 l-152 153 566 0
c557 0 566 0 592 21 32 25 35 70 6 99 -20 20 -33 20 -590 20 -314 0 -570 3
-570 8 0 4 68 75 150 157 121 121 150 155 150 177 0 37 -32 68 -72 68 -27 0
-57 -26 -240 -207z"/>
</g>
</svg>
